<svg width="20" height="17" viewBox="0 0 20 17" fill="none" xmlns="http://www.w3.org/2000/svg">
    <g clip-path="url(#clip0_6501_153)">
        <path d="M2 16.875C1.45 16.875 0.98 16.675 0.59 16.285C0.2 15.895 0 15.425 0 14.875V2.875C0 2.325 0.2 1.855 0.59 1.465C0.98 1.075 1.45 0.875 2 0.875H14C14.55 0.875 15.02 1.075 15.41 1.465C15.8 1.855 16 2.325 16 2.875V7.375L20 3.375V14.375L16 10.375V14.875C16 15.425 15.8 15.895 15.41 16.285C15.02 16.675 14.55 16.875 14 16.875H2ZM2 14.875H14V2.875H2V14.875Z"
              fill="#DA64FF"/>
        <path d="M8 11.625C9.51878 11.625 10.75 10.3938 10.75 8.875C10.75 7.35622 9.51878 6.125 8 6.125C6.48122 6.125 5.25 7.35622 5.25 8.875C5.25 10.3938 6.48122 11.625 8 11.625Z"
              fill="#DA64FF"/>
    </g>
    <defs>
        <clipPath id="clip0_6501_153">
            <rect width="20" height="16" fill="white" transform="translate(0 0.875)"/>
        </clipPath>
    </defs>
</svg>
